<?xml version="1.0" standalone="no"?>
<!DOCTYPE svg PUBLIC "-//W3C//DTD SVG 1.1//EN" "http://www.w3.org/Graphics/SVG/1.1/DTD/svg11.dtd">
<svg xmlns="http://www.w3.org/2000/svg" xmlns:xlink="http://www.w3.org/1999/xlink" version="1.1" id="Layer_1" x="0px" y="0px" viewBox="0 0 883 376" style="enable-background:new 0 0 883 376;" xml:space="preserve" width="883" height="376">
<style type="text/css">
	.st0{fill:#DF3C26;}
	.st1{fill:#38C5F0;}
	.st2{fill:none;}
</style>
<path class="st0" d="M794.7,204.8c6.5,0,12.1-0.8,16.9-2.4c4.8-1.6,8.8-3.9,11.9-6.7c3.1-2.9,5.4-6.2,7-10.2  c1.5-3.9,2.3-8.2,2.3-12.9c0-9.4-3.1-16.6-9.3-21.6c-6.2-5-15.6-7.5-28.3-7.5h-22v61.3L794.7,204.8L794.7,204.8L794.7,204.8z   M883,301.5h-31c-5.9,0-10.1-2.3-12.8-6.9l-38.8-59.1c-1.5-2.2-3.1-3.8-4.8-4.7c-1.7-0.9-4.3-1.4-7.7-1.4h-14.7v72.1h-34.3V116.9  h56.3c12.5,0,23.2,1.3,32.3,3.9c9,2.6,16.4,6.2,22.1,10.9c5.7,4.7,10,10.3,12.7,16.8c2.7,6.5,4.1,13.7,4.1,21.5  c0,6.2-0.9,12.1-2.7,17.6c-1.8,5.5-4.4,10.6-7.9,15.1c-3.4,4.5-7.7,8.4-12.8,11.9c-5.1,3.4-10.8,6.1-17.3,8c2.2,1.3,4.2,2.8,6.1,4.6  c1.9,1.7,3.6,3.8,5.1,6.2L883,301.5L883,301.5z"/>
<path class="st0" d="M632.6,144.3v51.2h64.6v26.4h-64.6v52.2h81.9v27.5H598.2V116.9h116.4v27.3L632.6,144.3L632.6,144.3L632.6,144.3  z"/>
<path class="st0" d="M568.5,178.4h-50.9c-2.9,0-5.3-2.4-5.3-5.3v-50.9c0-2.9-2.4-5.3-5.3-5.3h-51c-2.9,0-5.3,2.4-5.3,5.3v50.9  c0,2.9-2.4,5.3-5.3,5.3h-50.9c-2.9,0-5.3,2.4-5.3,5.3v51c0,2.9,2.4,5.3,5.3,5.3h50.9c2.9,0,5.3,2.4,5.3,5.3v50.9  c0,2.9,2.4,5.3,5.3,5.3h51c2.9,0,5.3-2.4,5.3-5.3v-50.9c0-2.9,2.4-5.3,5.3-5.3h50.9c2.9,0,5.3-2.4,5.3-5.3v-51  C573.8,180.8,571.4,178.4,568.5,178.4z"/>
<path class="st1" d="M364.8,209.2c0,13.2-1.9,25.5-5.6,36.8c-3.7,11.3-9,21-15.8,29.3c-6.8,8.2-15,14.7-24.6,19.3  c-9.6,4.6-20.2,6.9-31.9,6.9c-11.7,0-22.2-2.3-31.8-6.9c-9.6-4.6-17.8-11.1-24.6-19.3c-6.8-8.2-12.1-18-15.9-29.3  s-5.6-23.5-5.6-36.8c0-13.3,1.9-25.5,5.6-36.8c3.8-11.3,9.1-21,15.9-29.3c6.9-8.2,15.1-14.7,24.6-19.3c9.6-4.6,20.2-6.9,31.8-6.9  c7.8,0,15.1,1.1,22,3.2c6.9,2.1,13.2,5.1,18.9,9c5.7,3.9,10.9,8.6,15.5,14.1c4.6,5.5,8.4,11.7,11.7,18.5c3.2,6.8,5.6,14.3,7.3,22.2  C364,192,364.8,200.4,364.8,209.2L364.8,209.2z M335.6,209.2c0-9.9-1.1-18.8-3.4-26.6c-2.3-7.9-5.5-14.6-9.7-20.1  c-4.2-5.5-9.3-9.7-15.3-12.6c-6-2.9-12.7-4.4-20.3-4.4s-14.3,1.5-20.3,4.4c-6,2.9-11.1,7.1-15.3,12.6c-4.2,5.5-7.5,12.2-9.7,20.1  c-2.3,7.9-3.4,16.7-3.4,26.6c0,9.9,1.1,18.8,3.4,26.7c2.3,7.9,5.5,14.5,9.7,20c4.2,5.5,9.3,9.7,15.3,12.6s12.7,4.4,20.3,4.4  s14.3-1.5,20.3-4.4c6-2.9,11.1-7.1,15.3-12.6c4.2-5.5,7.4-12.1,9.7-20C334.4,228,335.6,219.1,335.6,209.2L335.6,209.2z"/>
<g>
	<path class="st2" d="M138.7,136H19.1c0,0,0,0,0,0v146.4c0,0,0,0,0,0h146.4c0,0,0,0,0,0v-99.3"/>
	<path class="st1" d="M165.5,282.4C165.5,282.4,165.5,282.4,165.5,282.4l-146.4,0c0,0,0,0,0,0V136c0,0,0,0,0,0h119.6   c5.3-6.6,10.6-13,16-19.1H5.3c-2.9,0-5.3,2.4-5.3,5.3v174c0,2.9,2.4,5.3,5.3,5.3h174c2.9,0,5.3-2.4,5.3-5.3V159   c-6.7,7.8-13,15.8-19.1,24.1V282.4L165.5,282.4z"/>
</g>
<path class="st1" d="M287.7,42.7c-1.8-2.1-3.7-3.8-6.4-4.6c-3.8-1.1-9.2-0.4-18.3,3.7c-1.3,0.6-2.6,1.2-3.9,1.8  c-0.5,0.2-1,0.5-1.6,0.8c-0.8,0.4-1.7,0.8-2.5,1.3c-1.2,0.6-2.5,1.3-3.7,1.9c-0.1,0.1-0.2,0.1-0.4,0.2  c-92.2,48.6-153.9,164-154,164.2l-0.6-1l-13.1-22.1l-23.3-38.9c-1.3-2.3-2.6-4-4-5.3c-1.1-1-2.2-1.7-3.3-2.2  c-3.3-1.3-6.7-0.4-10.1,1.6c-4.8,2.9-9.7,8.1-14.1,13.2c-1.2,1.4-1.8,3.2-1.7,5c0,0-0.2,1.2,3,6.5c3.5,5.7,7.2,12.2,11,19  c0.7,1.3,1.5,2.6,2.2,4c1.3,2.4,2.6,4.9,4,7.3c4.4,8.1,8.7,16.4,12.6,24.2c7.8,15.2,14.3,28.5,17.4,35c0.8,2.1,1.3,3.2,1.3,3.2  c2.1,4.4,4.1,7.7,6.2,10.2c14.7,17.8,27.8-8.9,27.8-8.9c51.7-127.3,148-182.3,178.3-198.3c2.4-1.3,4.4-2.3,5.9-3.1  C302.5,58.4,289.7,45,287.7,42.7L287.7,42.7z"/>
</svg>